<?xml version="1.0" encoding="UTF-8" standalone="no"?>
<!-- Created with Inkscape (http://www.inkscape.org/) -->

<svg
   xmlns:ns0="http://www.iki.fi/pav/software/textext/"
   xmlns:dc="http://purl.org/dc/elements/1.1/"
   xmlns:cc="http://creativecommons.org/ns#"
   xmlns:rdf="http://www.w3.org/1999/02/22-rdf-syntax-ns#"
   xmlns:svg="http://www.w3.org/2000/svg"
   xmlns="http://www.w3.org/2000/svg"
   xmlns:sodipodi="http://sodipodi.sourceforge.net/DTD/sodipodi-0.dtd"
   xmlns:inkscape="http://www.inkscape.org/namespaces/inkscape"
   width="44.645515"
   height="15.618874"
   id="svg2"
   version="1.1"
   inkscape:version="0.47 r22583"
   sodipodi:docname="set.svg"
   inkscape:export-filename="C:\DEVELOPMENT\workspaces\KNIME-workspace\org.knime.ext.itemset\resources\images\set_medium.png"
   inkscape:export-xdpi="90"
   inkscape:export-ydpi="90">
  <sodipodi:namedview
     id="base"
     pagecolor="#ffffff"
     bordercolor="#666666"
     borderopacity="1.0"
     inkscape:pageopacity="0.0"
     inkscape:pageshadow="2"
     inkscape:zoom="15.839192"
     inkscape:cx="25.913699"
     inkscape:cy="5.3486774"
     inkscape:document-units="px"
     inkscape:current-layer="content"
     showgrid="false"
     inkscape:window-width="1538"
     inkscape:window-height="1178"
     inkscape:window-x="54"
     inkscape:window-y="-8"
     inkscape:window-maximized="1" />
  <defs
     id="defs4">
    <inkscape:perspective
       id="perspective10"
       inkscape:persp3d-origin="372.04724 : 350.78739 : 1"
       inkscape:vp_z="744.09448 : 526.18109 : 1"
       inkscape:vp_y="0 : 1000 : 0"
       inkscape:vp_x="0 : 526.18109 : 1"
       sodipodi:type="inkscape:persp3d" />
  </defs>
  <metadata
     id="metadata7">
    <rdf:RDF>
      <cc:Work
         rdf:about="">
        <dc:format>image/svg+xml</dc:format>
        <dc:type
           rdf:resource="http://purl.org/dc/dcmitype/StillImage" />
        <dc:title />
      </cc:Work>
    </rdf:RDF>
  </metadata>
  <g
     transform="translate(-56.726334,-72.970546)"
     id="layer1"
     inkscape:groupmode="layer"
     inkscape:label="Ebene 1">
    <g
       inkscape:export-ydpi="90"
       inkscape:export-xdpi="90"
       inkscape:export-filename="C:\DEVELOPMENT\workspaces\KNIME-workspace\org.knime.ext.itemset\resources\images\set_medium.png"
       id="content"
       transform="matrix(1.2667443,0,0,-1.2667443,-222.92379,979.67447)"
       xml:space="preserve"
       stroke-miterlimit="10.433"
       font-style="normal"
       font-variant="normal"
       font-weight="normal"
       font-stretch="normal"
       font-size-adjust="none"
       letter-spacing="normal"
       word-spacing="normal"
       ns0:text="\\textbf{$\\{A,B\\}$}"
       ns0:preamble=""
       style="font-style:normal;font-variant:normal;font-weight:normal;font-stretch:normal;letter-spacing:normal;word-spacing:normal;text-anchor:start;fill:none;stroke:#000000;stroke-linecap:butt;stroke-linejoin:miter;stroke-miterlimit:10.43299961;stroke-opacity:1;stroke-dasharray:none;stroke-dashoffset:0">
<path
   style="fill:#000000;stroke-width:0"
   d="m 238.41626,715.74068 0,0.0634 0.0126,0.0634 0,0.0634 0.0126,0.0634 0,0.0634 0.0126,0.0634 0.0253,0.0792 0.0126,0.0634 0.0253,0.0634 0.0253,0.0792 0.0253,0.0634 0.0253,0.0792 0.0379,0.0634 0.0379,0.0634 0.0379,0.0634 0.0505,0.0792 0.0505,0.0634 0.0505,0.0634 0.0505,0.0475 0.0632,0.0634 0.0758,0.0475 0.0632,0.0634 0.0758,0.0475 0.0884,0.0475 0.0884,0.0475 0.0884,0.0317 0.10108,0.0317 0.10108,0.0317 0.0505,0.0158 0.0505,0.0158 0.0632,0.0158 0.0505,0.0158 0.0632,0 0.0632,0.0158 0.0632,0 0.0632,0.0158 c 0.0632,0.0158 0.11371,0.0634 0.11371,0.1584 0,0.17424 -0.10108,0.17424 -0.24006,0.17424 -1.2635,0 -2.41329,-0.792 -2.42592,-1.96416 l 0,-3.59568 c 0,-0.61776 0,-1.12464 -0.49277,-1.64736 -0.44222,-0.45936 -0.92235,-0.49104 -1.20032,-0.50688 -0.0632,-0.0158 -0.11372,-0.0792 -0.11372,-0.17424 0,-0.1584 0.0758,-0.1584 0.20216,-0.17424 0.83391,-0.0634 1.44039,-0.6336 1.56674,-1.39392 0.0379,-0.17424 0.0379,-0.20592 0.0379,-0.77616 l 0,-3.12048 c 0,-0.66528 0,-1.17216 0.60648,-1.77408 0.49276,-0.4752 1.32667,-0.64944 1.81944,-0.64944 0.13898,0 0.24006,0 0.24006,0.17424 0,0.1584 -0.0758,0.1584 -0.20216,0.17424 -0.796,0.0634 -1.41512,0.57024 -1.57937,1.37808 -0.0379,0.14256 -0.0379,0.17424 -0.0379,0.74448 l 0,3.31056 c 0,0.72864 -0.10108,0.99792 -0.5054,1.48896 -0.26533,0.33264 -0.63175,0.49104 -0.97289,0.61776 1.02343,0.36432 1.47829,1.09296 1.47829,2.01168 z"
   id="path2910"
   inkscape:export-filename="C:\DEVELOPMENT\workspaces\KNIME-workspace\org.knime.ext.itemset\resources\images\set_medium.png"
   inkscape:export-xdpi="90"
   inkscape:export-ydpi="90" />
<path
   style="fill:#000000;stroke-width:0"
   d="m 241.37904,707.82068 -0.0505,-0.095 -0.0505,-0.095 -0.0505,-0.095 -0.0379,-0.0792 -0.0505,-0.0792 -0.0505,-0.0634 -0.0379,-0.0792 -0.0505,-0.0634 -0.0505,-0.0634 -0.0505,-0.0634 -0.0379,-0.0475 -0.0505,-0.0475 -0.0505,-0.0475 -0.0505,-0.0475 -0.0379,-0.0475 -0.0505,-0.0317 -0.0505,-0.0317 -0.0505,-0.0317 -0.0505,-0.0317 -0.0379,-0.0317 -0.0505,-0.0158 -0.0505,-0.0317 -0.0505,-0.0158 -0.0505,-0.0158 -0.0505,-0.0158 -0.0505,-0.0158 -0.0505,-0.0158 -0.0505,0 -0.10108,-0.0158 -0.10108,-0.0158 c -0.15162,-0.0158 -0.26534,-0.0158 -0.26534,-0.3168 0,-0.095 0.0632,-0.17424 0.16426,-0.17424 0.34114,0 0.73283,0.0475 1.08661,0.0475 0.41695,0 0.85918,-0.0475 1.25086,-0.0475 0.0758,0 0.24007,0 0.24007,0.30096 0,0.17424 -0.11372,0.19008 -0.20216,0.19008 -0.29061,0.0317 -0.59385,0.1584 -0.59385,0.5544 0,0.19008 0.0884,0.36432 0.18953,0.58608 l 0.94762,2.01168 3.15875,0 -0.0379,0.49104 -2.88078,0 2.47646,5.21136 0.40432,-5.21136 0.0379,-0.49104 c 0.0253,-0.3168 0.20216,-2.47104 0.20216,-2.62944 0,-0.4752 -0.65702,-0.52272 -0.89708,-0.52272 -0.17689,0 -0.30324,0 -0.30324,-0.3168 0,-0.17424 0.13898,-0.17424 0.16425,-0.17424 0.51804,0 1.06134,0.0475 1.57938,0.0475 0.31587,0 1.11188,-0.0475 1.42775,-0.0475 0.0758,0 0.22743,0 0.22743,0.3168 0,0.17424 -0.12635,0.17424 -0.2906,0.17424 -0.78337,0 -0.78337,0.11088 -0.82128,0.57024 l -0.77073,9.86832 c -0.0253,0.3168 -0.0253,0.38016 -0.24007,0.38016 -0.20216,0 -0.2527,-0.11088 -0.32851,-0.26928 z"
   id="path2912"
   inkscape:export-filename="C:\DEVELOPMENT\workspaces\KNIME-workspace\org.knime.ext.itemset\resources\images\set_medium.png"
   inkscape:export-xdpi="90"
   inkscape:export-ydpi="90" />
<path
   style="fill:#000000;stroke-width:0"
   d="m 250.49507,706.01492 0,0.095 0,0.095 0,0.095 -0.0126,0.095 0,0.0792 -0.0126,0.0792 -0.0126,0.0792 -0.0126,0.0792 -0.0126,0.0792 -0.0126,0.0792 -0.0253,0.0634 -0.0126,0.0634 -0.0253,0.0634 -0.0253,0.0634 -0.0253,0.0634 -0.0253,0.0475 -0.0253,0.0634 -0.0253,0.0475 -0.0379,0.0317 -0.0253,0.0475 -0.0379,0.0475 -0.0253,0.0317 -0.0379,0.0317 -0.0379,0.0317 -0.0379,0.0158 -0.0379,0.0317 -0.0379,0.0158 -0.0379,0.0158 -0.0505,0.0158 -0.0379,0 -0.0505,0.0158 -0.0379,0 c -0.41695,0 -0.66965,-0.396 -0.66965,-0.83952 0,-0.42768 0.2527,-0.83952 0.66965,-0.83952 0.15163,0 0.31587,0.0634 0.44222,0.20592 0.0379,0.0317 0.0505,0.0475 0.0632,0.0475 0.0126,0 0.0253,-0.0158 0.0253,-0.2376 0,-1.15632 -0.44223,-2.10672 -0.85918,-2.62944 -0.13898,-0.17424 -0.13898,-0.20592 -0.13898,-0.25344 0,-0.11088 0.0632,-0.17424 0.12634,-0.17424 0.13899,0 1.13715,1.21968 1.13715,3.05712 z"
   id="path2914"
   inkscape:export-filename="C:\DEVELOPMENT\workspaces\KNIME-workspace\org.knime.ext.itemset\resources\images\set_medium.png"
   inkscape:export-xdpi="90"
   inkscape:export-ydpi="90" />
<path
   style="fill:#000000;stroke-width:0"
   d="m 252.63657,707.2346 -0.0126,-0.0634 -0.0126,-0.0475 -0.0126,-0.0475 -0.0126,-0.0475 -0.0126,-0.0475 0,-0.0475 -0.0126,-0.0317 -0.0126,-0.0475 -0.0253,-0.0317 -0.0126,-0.0317 -0.0126,-0.0317 -0.0126,-0.0317 -0.0253,-0.0317 -0.0253,-0.0158 -0.0253,-0.0317 -0.0253,-0.0158 -0.0253,-0.0158 -0.0253,-0.0158 -0.0379,-0.0158 -0.0379,-0.0158 -0.0379,-0.0158 -0.0253,-0.0158 -0.0253,0 -0.0253,0 -0.0253,0 -0.0253,-0.0158 -0.0253,0 -0.0253,0 -0.0253,-0.0158 -0.0379,0 -0.0253,0 -0.0379,0 -0.0253,0 -0.0379,0 -0.0379,0 -0.0379,-0.0158 -0.0379,0 -0.0379,0 -0.0379,0 -0.0379,0 -0.0505,0 -0.0379,0 -0.0505,0 c -0.2148,0 -0.34115,0 -0.34115,-0.3168 0,-0.17424 0.11372,-0.17424 0.34115,-0.17424 l 4.49806,0 c 1.98369,0 3.47462,1.86912 3.47462,3.4056 0,1.14048 -0.73283,2.0592 -1.95842,2.23344 1.31404,0.30096 2.64071,1.47312 2.64071,2.96208 0,1.17216 -0.83391,2.18592 -2.35011,2.18592 l -0.17689,-0.49104 c 1.11188,0 1.37722,-0.93456 1.37722,-1.63152 0,-1.37808 -1.08661,-2.88288 -2.61545,-2.88288 l -1.84471,0 -0.0758,-0.34848 2.38802,0 c 1.20032,0 1.44039,-1.17216 1.44039,-1.85328 0,-1.55232 -1.11188,-3.0888 -2.60281,-3.0888 l -1.71836,0 c -0.16426,0 -0.18953,0 -0.26534,0.0158 -0.12635,0.0158 -0.16425,0.0317 -0.16425,0.1584 0,0.0475 0,0.0792 0.0632,0.36432 l 0.85918,4.40352 0.0758,0.34848 0.78337,3.91248 c 0.11372,0.5544 0.13899,0.60192 0.68229,0.60192 l 1.61728,0 0.17689,0.49104 -4.22009,0 c -0.24006,0 -0.36641,0 -0.36641,-0.3168 0,-0.17424 0.11371,-0.17424 0.35378,-0.17424 0.0253,0 0.26533,0 0.46749,-0.0317 0.22743,-0.0317 0.34115,-0.0475 0.34115,-0.25344 0,-0.0634 -0.0126,-0.11088 -0.0505,-0.30096 z"
   id="path2916"
   inkscape:export-filename="C:\DEVELOPMENT\workspaces\KNIME-workspace\org.knime.ext.itemset\resources\images\set_medium.png"
   inkscape:export-xdpi="90"
   inkscape:export-ydpi="90" />
<path
   style="fill:#000000;stroke-width:0"
   d="m 261.1019,704.16164 0,-0.0634 0,-0.0634 -0.0126,-0.0634 0,-0.0634 -0.0126,-0.0634 -0.0126,-0.0792 -0.0126,-0.0634 -0.0253,-0.0634 -0.0126,-0.0792 -0.0253,-0.0634 -0.0253,-0.0792 -0.0379,-0.0634 -0.0253,-0.0634 -0.0379,-0.0792 -0.0505,-0.0634 -0.0379,-0.0634 -0.0505,-0.0634 -0.0505,-0.0634 -0.0632,-0.0634 -0.0632,-0.0475 -0.0632,-0.0634 -0.0758,-0.0475 -0.0758,-0.0475 -0.0758,-0.0475 -0.0884,-0.0475 -0.10108,-0.0475 -0.0884,-0.0317 -0.10108,-0.0317 -0.0632,-0.0158 -0.0505,-0.0158 -0.0505,0 -0.0632,-0.0158 -0.0632,-0.0158 -0.0505,0 -0.0632,-0.0158 -0.0632,0 c -0.0632,-0.0158 -0.11372,-0.0792 -0.11372,-0.17424 0,-0.17424 0.13899,-0.17424 0.2527,-0.17424 1.21296,0 2.38802,0.77616 2.40065,1.98 l 0,3.59568 c 0,0.61776 0,1.12464 0.5054,1.63152 0.44223,0.45936 0.92236,0.49104 1.18769,0.50688 0.0632,0.0158 0.11372,0.0792 0.11372,0.17424 0,0.1584 -0.0758,0.1584 -0.20216,0.17424 -0.82128,0.0634 -1.42776,0.6336 -1.56674,1.40976 -0.0379,0.17424 -0.0379,0.20592 -0.0379,0.77616 l 0,3.12048 c 0,0.66528 0,1.17216 -0.60648,1.77408 -0.5054,0.4752 -1.36458,0.6336 -1.79417,0.6336 -0.11371,0 -0.2527,0 -0.2527,-0.17424 0,-0.14256 0.0758,-0.14256 0.20216,-0.1584 0.78337,-0.0634 1.40249,-0.57024 1.56674,-1.37808 0.0379,-0.14256 0.0379,-0.17424 0.0379,-0.74448 l 0,-3.31056 c 0,-0.72864 0.10108,-0.99792 0.5054,-1.5048 0.26533,-0.33264 0.63175,-0.49104 0.98553,-0.61776 -1.03607,-0.36432 -1.49093,-1.07712 -1.49093,-1.99584 z"
   id="path2918"
   inkscape:export-filename="C:\DEVELOPMENT\workspaces\KNIME-workspace\org.knime.ext.itemset\resources\images\set_medium.png"
   inkscape:export-xdpi="90"
   inkscape:export-ydpi="90" />
</g>  </g>
</svg>
